<?xml version="1.0" encoding="UTF-8"?>
<svg width="144" height="144" viewBox="0 0 144 144" xmlns="http://www.w3.org/2000/svg">
  <!-- 背景圆 -->
  <circle cx="72" cy="72" r="70" fill="#1989fa" />
  
  <!-- 心形 -->
  <path d="M72 100
    C 60 85, 30 65, 30 45
    C 30 35, 38 25, 48 25
    C 58 25, 66 35, 72 45
    C 78 35, 86 25, 96 25
    C 106 25, 114 35, 114 45
    C 114 65, 84 85, 72 100" 
    fill="white" />
    
  <!-- 人物剪影 -->
  <circle cx="60" cy="65" r="8" fill="#1989fa" />
  <circle cx="84" cy="65" r="8" fill="#1989fa" />
  <path d="M72 90 C 60 90, 52 80, 52 70 C 52 60, 62 55, 72 55 C 82 55, 92 60, 92 70 C 92 80, 84 90, 72 90" 
    fill="#1989fa" />
</svg>
